# xmcd
#
# Track frame offsets: 
#        183
#        14350
#        26805
#        43368
#        61600
#        73093
#        90508
#        104655
#        122833
#        137448
#        148400
#        163183
#        184033
#        195455
#        214258
#        228883
#        250283
#        261283
#        279883
#        293130
#        310333
#
# Disc length: 4268 seconds
#
# Revision: 0
# Processed by: cddbd v1.5.2PL0 Copyright (c) Steve Scherf et al.
# Submitted via: ExactAudioCopyFreeDBPlugin 1.0
#
DISCID=3f10aa15
DTITLE=Richard Müller - Banket 1984-1991
DYEAR=1998
DGENRE=Pop
TTITLE0=Po schodoch
TTITLE1=Plesový marš
TTITLE2=Nespoznaný
TTITLE3=Požičovňa tvárí
TTITLE4=Praveký manekýn
TTITLE5=Aj ty!
TTITLE6=Chladné hotely
TTITLE7=Pieseň šťastných detí
TTITLE8=Prečo vy ľudia XX.storočia máte vždy zachmúrené obočia?
TTITLE9=Slon v porceláne
TTITLE10=Slovenské tango
TTITLE11=Tlaková níž
TTITLE12=Dva metre v hubertuse
TTITLE13=Espresso tón
TTITLE14=Štrbina možnej lásky v grafikóne nesmelého muža
TTITLE15=Niet čím ťa sklamať
TTITLE16=Slovenčina
TTITLE17=Slúžiť ti chcem
TTITLE18=Salieri
TTITLE19=Mužolapka
TTITLE20=Prečo sa máme rozísť
EXTD=
EXTT0=
EXTT1=
EXTT2=
EXTT3=
EXTT4=
EXTT5=
EXTT6=
EXTT7=
EXTT8=
EXTT9=
EXTT10=
EXTT11=
EXTT12=
EXTT13=
EXTT14=
EXTT15=
EXTT16=
EXTT17=
EXTT18=
EXTT19=
EXTT20=
PLAYORDER=
